<svg width="414" height="686" viewBox="0 0 414 686" fill="none" xmlns="http://www.w3.org/2000/svg">
<rect width="414" height="454.265" fill="#F2F2F2"/>
<path fill-rule="evenodd" clip-rule="evenodd" d="M0 77.4531L17.25 108.854C34.5 140.255 69 203.057 103.5 203.057C138 203.057 172.5 140.255 207 152.816C241.5 165.376 276 253.299 310.5 303.54C345 353.782 379.5 366.342 396.75 372.623L414 378.903V454.265H396.75C379.5 454.265 345 454.265 310.5 454.265C276 454.265 241.5 454.265 207 454.265C172.5 454.265 138 454.265 103.5 454.265C69 454.265 34.5 454.265 17.25 454.265H0V77.4531Z" fill="white" fill-opacity="0.4"/>
<path fill-rule="evenodd" clip-rule="evenodd" d="M414 331.057L396.75 346.458C379.5 361.859 345 392.661 310.5 382.394C276 372.127 241.5 320.79 207 289.988C172.5 259.186 138 248.919 103.5 254.053C69 259.186 34.5 279.721 17.25 289.988L0 300.256V686H17.25C34.5 686 69 686 103.5 686C138 686 172.5 686 207 686C241.5 686 276 686 310.5 686C345 686 379.5 686 396.75 686H414V331.057Z" fill="white"/>
</svg>
